<?xml version="1.0" standalone="no"?>
<!DOCTYPE svg PUBLIC "-//W3C//DTD SVG 20010904//EN"
 "http://www.w3.org/TR/2001/REC-SVG-20010904/DTD/svg10.dtd">
<svg version="1.0" xmlns="http://www.w3.org/2000/svg"
 width="200.000000pt" height="200.000000pt" viewBox="0 0 200.000000 200.000000"
 preserveAspectRatio="xMidYMid meet">
<metadata>
Created by potrace 1.16, written by Peter Selinger 2001-2019
</metadata>
<g transform="translate(0.000000,200.000000) scale(0.100000,-0.100000)"
fill="#000000" stroke="none">
<path d="M906 1925 c-49 -17 -113 -78 -137 -130 -11 -25 -19 -63 -19 -100 l0
-60 -107 -38 c-58 -20 -107 -36 -107 -35 -1 2 -14 19 -29 39 -38 53 -116 89
-191 89 -146 0 -255 -108 -256 -253 0 -100 44 -174 131 -222 45 -24 65 -29
119 -28 36 1 74 3 84 4 15 3 31 -16 72 -86 29 -49 50 -94 46 -100 -64 -107
-94 -146 -110 -140 -32 14 -117 17 -159 6 -63 -17 -124 -68 -156 -130 -91
-180 50 -388 249 -368 61 6 118 34 158 75 l28 31 114 -57 114 -57 0 -60 c1
-77 24 -130 83 -181 69 -61 158 -80 249 -52 51 15 126 82 149 133 24 52 25
161 2 209 l-16 35 43 48 c24 26 97 103 162 171 l119 122 39 -20 c52 -26 159
-27 215 -1 51 23 118 98 133 149 15 50 15 114 0 164 -15 51 -82 126 -133 149
-57 26 -163 25 -217 -2 l-41 -21 -164 165 -165 164 21 41 c27 54 28 160 2 217
-23 51 -98 118 -149 133 -52 16 -128 14 -176 -3z m194 -89 c92 -61 107 -190
32 -269 -39 -42 -75 -57 -132 -57 -57 0 -93 15 -132 57 -88 93 -52 240 73 293
40 17 115 6 159 -24z m-714 -235 c62 -28 97 -80 102 -151 5 -75 -23 -131 -86
-167 -59 -35 -143 -30 -197 11 -107 82 -92 246 27 305 53 26 100 26 154 2z
m425 -86 c18 -21 18 -23 -42 -115 -34 -52 -64 -99 -69 -103 -4 -5 -37 6 -72
24 l-66 32 2 68 1 69 105 38 c93 35 106 37 114 23 5 -9 17 -25 27 -36z m507
-198 l162 -162 -21 -43 c-20 -40 -23 -42 -58 -36 -20 3 -61 9 -91 12 l-55 7
-7 47 c-28 197 -293 276 -432 130 -15 -17 -34 -28 -41 -25 -10 3 6 34 50 101
54 81 68 96 87 94 82 -11 155 -6 193 14 22 12 42 22 45 23 3 0 78 -72 168
-162z m-669 -93 c4 -3 -78 -134 -84 -134 -5 0 -85 138 -85 146 0 4 10 18 21
30 l22 23 61 -31 c33 -17 63 -32 65 -34z m394 45 c21 -5 54 -24 74 -42 65 -57
80 -135 42 -215 -62 -127 -241 -132 -314 -8 -58 98 -10 222 101 261 48 17 50
17 97 4z m-293 -168 c0 -92 20 -141 77 -192 22 -20 61 -44 86 -54 l47 -18 0
-137 0 -138 -36 -7 c-20 -3 -38 -5 -40 -2 -2 2 -65 106 -139 231 -77 129 -133
232 -129 239 4 7 29 47 56 89 63 98 78 96 78 -11z m1020 59 c93 -47 125 -171
67 -258 -62 -94 -190 -110 -270 -34 -42 39 -57 75 -57 132 0 57 15 93 57 132
54 52 135 63 203 28z m-416 -151 l74 -11 7 -37 c3 -20 15 -55 27 -79 l20 -42
-157 -164 -157 -165 -45 25 c-25 13 -54 24 -64 24 -18 0 -19 10 -19 138 l0
138 55 23 c58 24 131 95 141 138 7 27 14 27 118 12z m-660 -286 c69 -117 126
-216 126 -220 -1 -4 -11 -21 -24 -36 l-23 -28 -105 52 -104 52 0 76 c0 81 -14
123 -60 171 l-23 25 40 63 c22 35 42 62 44 60 1 -1 60 -98 129 -215z m-282 52
c73 -49 99 -154 58 -235 -22 -44 -77 -84 -127 -95 -72 -15 -160 35 -194 110
-23 51 -23 89 0 140 49 106 168 142 263 80z m666 -299 c126 -66 137 -236 20
-313 -87 -58 -211 -26 -258 67 -61 120 23 260 158 260 29 0 65 -6 80 -14z"/>
</g>
</svg>
